<?xml version="1.0" encoding="utf-8"?>
<!-- Generator: Adobe Illustrator 17.1.0, SVG Export Plug-In . SVG Version: 6.00 Build 0)  -->
<!DOCTYPE svg PUBLIC "-//W3C//DTD SVG 1.1//EN" "http://www.w3.org/Graphics/SVG/1.1/DTD/svg11.dtd">
<svg version="1.1" id="Layer_1" xmlns="http://www.w3.org/2000/svg" xmlns:xlink="http://www.w3.org/1999/xlink" x="0px" y="0px"
	 viewBox="0 0 145.683 248.297" enable-background="new 0 0 145.683 248.297" xml:space="preserve">
<linearGradient id="SVGID_1_" gradientUnits="userSpaceOnUse" x1="6.6715" y1="246.0207" x2="138.3775" y2="246.0207">
	<stop  offset="0" style="stop-color:#4C3D2A"/>
	<stop  offset="1" style="stop-color:#7C6755"/>
</linearGradient>
<path fill="url(#SVGID_1_)" d="M6.672,127.887v219.939c0,0,67.97,37.249,130.18,0l1.526-220.165"/>
<rect x="21.489" y="149.132" fill="#4C3D2A" stroke="#FFFFFF" stroke-width="0.25" stroke-miterlimit="10" width="7.235" height="26.905"/>
<rect x="120.065" y="149.132" fill="#4C3D2A" stroke="#FFFFFF" stroke-width="0.25" stroke-miterlimit="10" width="8.139" height="25.775"/>
<rect x="34.376" y="282.98" fill="#4C3D2A" stroke="#FFFFFF" stroke-width="0.25" stroke-miterlimit="10" width="17.635" height="10.852"/>
<rect x="35.506" y="272.805" fill="#4C3D2A" stroke="#FFFFFF" stroke-width="0.25" stroke-miterlimit="10" width="14.018" height="3.844"/>
<rect x="13.123" y="193.447" fill="#4C3D2A" stroke="#FFFFFF" stroke-width="0.25" stroke-miterlimit="10" width="4.522" height="19.378"/>
<rect x="91.14" y="221.038" fill="#4C3D2A" stroke="#FFFFFF" stroke-width="0.25" stroke-miterlimit="10" width="11.307" height="27.258"/>
<linearGradient id="SVGID_2_" gradientUnits="userSpaceOnUse" x1="32.1466" y1="61.3493" x2="117.4632" y2="61.3493">
	<stop  offset="0" style="stop-color:#4C3D2A"/>
	<stop  offset="1" style="stop-color:#C59B82"/>
</linearGradient>
<polygon fill="url(#SVGID_2_)" points="74.224,10.09 32.147,109.354 117.463,112.609 "/>
<g>
	<linearGradient id="SVGID_3_" gradientUnits="userSpaceOnUse" x1="2.132074e-06" y1="94.5779" x2="145.6835" y2="94.5779">
		<stop  offset="0" style="stop-color:#4C3D2A"/>
		<stop  offset="0.4736" style="stop-color:#4F3F2C"/>
		<stop  offset="0.7635" style="stop-color:#574632"/>
		<stop  offset="1" style="stop-color:#65513C"/>
	</linearGradient>
	<polygon fill="url(#SVGID_3_)" points="138.378,127.661 138.387,126.251 145.683,126.251 145.683,75.562 137.211,64.249 
		130.215,64.249 130.126,100.944 127.18,100.99 127.623,70.209 123.866,61.787 118.554,61.787 118.813,76.687 116.869,66.581 
		111.557,66.322 111.039,100.787 104.819,100.916 104.172,76.817 97.952,77.076 97.823,61.787 89.79,61.787 89.531,74.744 
		83.311,74.873 83.052,100.139 68.93,99.75 69.059,75.392 62.322,75.133 62.84,61.269 54.936,61.269 54.548,74.485 48.847,74.873 
		48.458,99.491 37.315,99.102 38.093,76.428 32.651,75.78 33.299,62.046 27.209,62.046 19.046,87.312 18.787,100.398 
		15.548,100.398 16.714,77.594 13.993,77.465 14.252,62.953 10.884,63.083 0,74.226 0,125.793 6.672,126.251 6.672,127.887 	"/>
</g>
<line fill="none" stroke="#4D4438" stroke-width="0.25" stroke-miterlimit="10" x1="74.224" y1="10.09" x2="74.224" y2="6.465"/>
<g>
	<g>
		<line fill="none" stroke="#4D4438" stroke-width="0.25" stroke-miterlimit="10" x1="74.224" y1="3.228" x2="74.224" y2="6.455"/>
		<line fill="none" stroke="#4D4438" stroke-width="0.25" stroke-miterlimit="10" x1="74.224" y1="3.228" x2="75.624" y2="6.136"/>
		<line fill="none" stroke="#4D4438" stroke-width="0.25" stroke-miterlimit="10" x1="74.224" y1="3.228" x2="76.747" y2="5.24"/>
		<line fill="none" stroke="#4D4438" stroke-width="0.25" stroke-miterlimit="10" x1="74.224" y1="3.228" x2="77.37" y2="3.946"/>
		<line fill="none" stroke="#4D4438" stroke-width="0.25" stroke-miterlimit="10" x1="74.224" y1="3.228" x2="77.37" y2="2.509"/>
		<line fill="none" stroke="#4D4438" stroke-width="0.25" stroke-miterlimit="10" x1="74.224" y1="3.228" x2="76.747" y2="1.215"/>
		<line fill="none" stroke="#4D4438" stroke-width="0.25" stroke-miterlimit="10" x1="74.224" y1="3.228" x2="75.624" y2="0.32"/>
		<line fill="none" stroke="#4D4438" stroke-width="0.25" stroke-miterlimit="10" x1="74.224" y1="3.228" x2="74.224" y2="0"/>
		<line fill="none" stroke="#4D4438" stroke-width="0.25" stroke-miterlimit="10" x1="74.224" y1="3.228" x2="72.823" y2="0.32"/>
		<line fill="none" stroke="#4D4438" stroke-width="0.25" stroke-miterlimit="10" x1="74.224" y1="3.228" x2="71.7" y2="1.215"/>
		<line fill="none" stroke="#4D4438" stroke-width="0.25" stroke-miterlimit="10" x1="74.224" y1="3.228" x2="71.077" y2="2.509"/>
		<line fill="none" stroke="#4D4438" stroke-width="0.25" stroke-miterlimit="10" x1="74.224" y1="3.228" x2="71.077" y2="3.946"/>
		<line fill="none" stroke="#4D4438" stroke-width="0.25" stroke-miterlimit="10" x1="74.224" y1="3.228" x2="71.7" y2="5.24"/>
		<line fill="none" stroke="#4D4438" stroke-width="0.25" stroke-miterlimit="10" x1="74.224" y1="3.228" x2="72.823" y2="6.136"/>
	</g>
</g>
<polygon points="0,74.226 0,77.501 13.993,77.465 14.252,62.953 10.884,63.083 "/>
<polygon points="27.209,62.046 22.8,75.695 32.651,75.78 33.299,62.046 "/>
<polygon points="54.936,61.269 54.548,74.485 62.322,75.133 62.84,61.269 "/>
<polygon points="89.79,61.787 89.531,74.744 97.933,74.744 97.823,61.787 "/>
<polygon points="118.554,61.787 118.712,70.894 127.613,70.894 127.623,70.209 123.866,61.787 "/>
<polygon points="130.215,64.249 130.188,75.133 145.683,75.562 137.211,64.249 "/>
</svg>
